<svg width="800" height="800" viewBox="0 0 800 800" fill="none" xmlns="http://www.w3.org/2000/svg">
<g clip-path="url(#clip0_53_10)">
<path d="M800 0H0V800H800V0Z" fill="white" fill-opacity="0.01"/>
<path fill-rule="evenodd" clip-rule="evenodd" d="M400 733.333C538.072 733.333 650 621.405 650 483.333C650 250 400 66.6665 400 66.6665C400 66.6665 150 250 150 483.333C150 621.405 261.928 733.333 400 733.333Z" stroke="black" stroke-width="66.6667" stroke-linecap="round" stroke-linejoin="round"/>
<path d="M156.5 426.5C139.896 497.946 159.69 584.397 208 643.5C255.707 701.866 331.398 733.333 400 733.333C469.935 733.333 545.085 699.534 593 641.5C639.682 584.959 660.272 505.211 643 426.5C643 426.5 500 495.5 400 445.5C300 395.5 156.5 426.5 156.5 426.5Z" fill="#2F88FF" stroke="black" stroke-width="66.6667" stroke-linejoin="round"/>
</g>
<defs>
<clipPath id="clip0_53_10">
<rect width="800" height="800" fill="white"/>
</clipPath>
</defs>
</svg>
