<svg width="800" height="800" viewBox="0 0 800 800" fill="none" xmlns="http://www.w3.org/2000/svg">
<g clip-path="url(#clip0_53_15)">
<path d="M800 0H0V800H800V0Z" fill="white" fill-opacity="0.01"/>
<path fill-rule="evenodd" clip-rule="evenodd" d="M400 733.333C538.072 733.333 650 621.405 650 483.333C650 250 400 66.6665 400 66.6665C400 66.6665 150 250 150 483.333C150 621.405 261.928 733.333 400 733.333Z" stroke="black" stroke-width="66.6667" stroke-linecap="round" stroke-linejoin="round"/>
<path d="M175.5 350.5C154 398.5 145 460.5 154 515C165.559 585 202.401 644.076 250 684.5C294.164 722.006 366.708 732.5 412 732.5C476.701 732.5 552 691 608 617.5C638.095 578 650 521 650 468C650 415 629.5 360.5 614.5 328C614.5 328 500 368 400 318C300 268 175.5 350.5 175.5 350.5Z" fill="#2F88FF" stroke="black" stroke-width="66.6667" stroke-linejoin="round"/>
</g>
<defs>
<clipPath id="clip0_53_15">
<rect width="800" height="800" fill="white"/>
</clipPath>
</defs>
</svg>
