<svg width="800" height="800" viewBox="0 0 800 800" fill="none" xmlns="http://www.w3.org/2000/svg">
<g clip-path="url(#clip0_53_6)">
<path d="M800 0H0V800H800V0Z" fill="white" fill-opacity="0.01"/>
<path fill-rule="evenodd" clip-rule="evenodd" d="M400 733.333C538.072 733.333 650 621.405 650 483.333C650 250 400 66.6665 400 66.6665C400 66.6665 150 250 150 483.333C150 621.405 261.928 733.333 400 733.333Z" stroke="black" stroke-width="66.6667" stroke-linecap="round" stroke-linejoin="round"/>
<path d="M164.5 569.065C227.5 702.5 321 733.5 415.5 733.5C523 733.5 616.5 653 649 522.5C649 522.5 533.5 587.854 415.5 553.456C275 512.5 164.5 569.065 164.5 569.065Z" fill="#2F88FF" stroke="black" stroke-width="66.6667" stroke-linejoin="round"/>
</g>
<defs>
<clipPath id="clip0_53_6">
<rect width="800" height="800" fill="white"/>
</clipPath>
</defs>
</svg>
