<?xml version="1.0" encoding="UTF-8"?>
<svg id="Layer_2" data-name="Layer 2" xmlns="http://www.w3.org/2000/svg" viewBox="0 0 34.19 83.09">
  <g id="Layer_1-2" data-name="Layer 1">
    <path d="M27.02,52.08V9.93c0-5.47-4.45-9.93-9.93-9.93S7.17,4.45,7.17,9.93v42.16c-4.46,3.19-7.17,8.39-7.17,13.91,0,9.43,7.67,17.09,17.09,17.09s17.09-7.67,17.09-17.09c0-5.53-2.71-10.73-7.17-13.91h0ZM17.1,80.39c-7.95,0-14.39-6.44-14.39-14.39,0-5.32,2.88-9.95,7.17-12.44v-4.39h2.78v-1.92h-2.78v-7.27h2.78v-1.92h-2.78v-7.27h2.78v-1.92h-2.78v-7.27h2.78v-1.92h-2.78v-7.27h2.78v-1.92h-2.78v-.56c0-3.99,3.23-7.22,7.22-7.22s7.22,3.23,7.22,7.22v43.62c4.29,2.49,7.17,7.13,7.17,12.44,0,7.95-6.44,14.39-14.39,14.39h0ZM26.05,66c0,4.94-4.01,8.95-8.95,8.95s-8.95-4.01-8.95-8.95c0-3.93,2.54-7.27,6.07-8.47V9.16c0-1.59,1.29-2.88,2.88-2.88s2.88,1.29,2.88,2.88v48.37c3.53,1.2,6.07,4.54,6.07,8.47Z"/>
  </g>
</svg>